<svg xmlns="http://www.w3.org/2000/svg" width="50" height="50" viewBox="0 0 50 50" version="1.1"><path d="" stroke="none" fill="#080404" fill-rule="evenodd"/><path d="M 1 9 L 1 17 22.500 17 L 44 17 44 9 L 44 1 22.500 1 L 1 1 1 9 M 45 13.400 L 45 18.799 37.750 20.388 C 33.763 21.261, 28.702 22.339, 26.505 22.782 C 23.853 23.317, 22.394 24.193, 22.163 25.390 C 21.878 26.873, 22.232 27.057, 24.158 26.428 C 25.446 26.008, 31 24.695, 36.500 23.510 L 46.500 21.358 46.796 14.679 C 46.980 10.510, 46.698 8, 46.046 8 C 45.447 8, 45 10.309, 45 13.400 M 18 39 L 18 49 23 49 L 28 49 28 39 L 28 29 23 29 L 18 29 18 39" stroke="none" fill="#040404" fill-rule="evenodd"/></svg>